PathFileType	4	(X/Y/Z)	C:/Users/beibeiliu/ov580/test_trc/User2\sequence.17_training_dense_right.trc
DataRate	CameraRate	NumFrames	NumMarkers	Units	OrigDataRate	OrigDataStartFrame	OrigNumFrames
120	120	14	19	mm	120	1	66
Frame#	Time	ThumbCMC			ThumbMCP			ThumbIP			ThumbTip			IndexMCP			IndexPIP			IndexTip			MiddleMCP			MiddlePIP			MiddleTip			RingMCP			RingPIP			RingTip			PinkyMCP			PinkyPIP			PinkyTip			BackHand1			BackHand2			BackHand3	
		X0	Y0	Z0	X1	Y1	Z1	X2	Y2	Z2	X3	Y3	Z3	X4	Y4	Z4	X5	Y5	Z5	X6	Y6	Z6	X7	Y7	Z7	X8	Y8	Z8	X9	Y9	Z9	X10	Y10	Z10	X11	Y11	Z11	X12	Y12	Z12	X13	Y13	Z13	X14	Y14	Z14	X15	Y15	Z15	X16	Y16	Z16	X17	Y17	Z17	X18	Y18	Z18	
0	0	131.094	-14.4905	-21.202	103.097	-19.4925	-40.6041	80.9237	-22.7419	-66.9084	67.3431	-27.6616	-86.7791	133.174	11.8341	-101.711	122.826	10.6117	-131.479	113.073	9.65644	-153.985	166.753	12.6814	-112.302	161.568	10.5085	-144.416	163.371	3.14292	-177.294	190.088	-0.774485	-111.619	192.71	-4.25345	-138.553	196.766	-6.56855	-167.308	213.275	-18.6624	-97.8461	223.493	-27.2715	-118.813	235.204	-29.5635	-136.297	191.527	5.50644	-52.6843	194.197	7.07686	-17.659	158.605	11.0967	-31.1805	
1	0.00833333	127.716	-12.8666	-26.2346	106.436	-20.3525	-41.1641	82.0331	-22.914	-69.8321	65.0086	-29.5352	-85.576	132.858	12.802	-101.785	120.278	13.5628	-130.456	115.301	10.0155	-158.657	162.688	14.1498	-111.038	159.747	11.8669	-148.352	161.432	5.10793	-179.263	187.061	1.03943	-114.212	195.559	-4.18048	-135.798	193.592	-5.27261	-167.439	211.197	-18.0289	-98.0252	222.143	-26.7567	-121.3	229.76	-29.1123	-143.43	190.913	5.22728	-52.6857	194.026	5.60313	-18.3139	157.576	13.0414	-34.0396	
2	0.0166667	126.965	-13.8634	-21.1751	105.915	-20.254	-44.0737	80.8525	-23.596	-69.5882	68.8968	-29.1913	-89.3481	132.809	14.7968	-101.909	119.932	15.0492	-126.403	115.932	11.4322	-155.547	162.065	16.5393	-115.769	158.936	14.0213	-147.61	160.627	5.77814	-180.408	189.298	2.62982	-112.68	190.474	-1.14882	-136.335	191.964	-5.36137	-167.029	211.122	-14.634	-100.078	219.464	-25.0567	-120.867	225.56	-27.9584	-142.638	191.72	6.34128	-53.5302	196.885	6.49683	-20.9303	159.789	13.3974	-32.2489	
3	0.025	125.334	-14.012	-24.0553	103.559	-21.9693	-41.5456	81.7912	-24.9371	-72.1955	68.1161	-31.6403	-92.1483	130.497	17.3135	-98.3145	118.351	17.8539	-129.846	116.056	13.3851	-157.067	165.408	19.6887	-112.751	161.713	16.4825	-148.553	161.43	4.64554	-178.2	186.835	8.65216	-113.424	190.103	3.20308	-141.131	186.237	-6.80926	-168.554	209.742	-9.81995	-98.9505	216.221	-19.2208	-122.012	220.011	-29.5654	-150.654	188.534	9.98536	-52.1403	194.954	4.48446	-17.7701	154.99	13.6684	-34.4254	
4	0.0333333	124.413	-12.2007	-25.0581	105.068	-21.5351	-43.4513	82.9776	-25.5168	-72.1042	71.1729	-32.0563	-94.7761	131.118	23.1517	-100.543	119.013	24.7377	-125.552	117.156	18.7848	-155.458	160.301	25.1289	-107.319	158.003	18.7912	-147.822	155.582	-1.04032	-173.408	184.724	13.5195	-107.275	183.304	6.44907	-142.01	177.117	-16.8416	-165.022	208.967	-5.15894	-96.7356	211.257	-16.0634	-130.163	202.718	-37.0627	-148.831	189.16	11.1635	-48.6506	197.992	8.15781	-17.4385	160.539	14.2915	-30.4401	
5	0.0416667	126.617	-10.6664	-25.1589	108.732	-19.2816	-43.726	87.1889	-24.1211	-67.8439	73.3388	-28.9697	-90.2119	130.46	24.7963	-96.9589	125.177	28.4659	-127.098	113.273	25.466	-155.336	162.785	24.9307	-107.81	159.106	12.4239	-144.609	151.374	-22.1029	-155.414	181.612	13.451	-111.366	181.047	-1.8552	-139.063	166.35	-33.3335	-140.114	207.379	-4.88545	-101.776	200.304	-20.0983	-127.562	182.631	-51.9087	-129.061	194.277	11.6444	-51.9666	196.662	8.75447	-20.0042	161.409	16.7435	-33.3442	
6	0.05	131.561	-9.46905	-23.9044	107.889	-15.0274	-40.4572	83.4659	-16.831	-67.1299	69.2105	-22.7558	-85.809	134.991	23.4728	-98.4838	124.526	27.897	-126.762	123.993	27.1461	-155.007	159.923	15.4447	-112.376	154.272	-11.3723	-138.893	149.57	-46.4008	-120.671	183.658	-0.452574	-115.251	176.06	-27.0313	-131.24	165.462	-51.1346	-107.235	201.454	-13.4544	-101.318	190.349	-42.5837	-118.503	173.785	-59.7674	-93.1847	193.674	11.6086	-50.2904	197.378	8.13502	-18.7003	161.971	16.5651	-33.281	
7	0.0583333	134.229	-10.0753	-22.2072	111.915	-12.778	-43.0519	87.8611	-13.0996	-67.6771	70.7524	-15.8774	-87.2773	138.596	19.5338	-103.823	134.88	20.8304	-134.247	130.852	23.5761	-161.537	164.414	-1.27983	-117.963	157.071	-35.3573	-128.928	156.868	-54.592	-91.0098	185.675	-18.9938	-116.237	177.258	-49.2209	-116.921	166.616	-54.0188	-83.8546	202.945	-24.3437	-102.031	187.549	-54.0496	-106.573	177.874	-60.041	-72.4232	196.289	11.1055	-58.5868	201.578	7.75827	-20.1531	163.606	15.8528	-33.9021	
8	0.0666667	140.061	-10.2751	-31.9729	115.947	-13.3478	-47.1266	94.0746	-13.3701	-70.6636	74.969	-16.2363	-88.74	146.926	16.0046	-110.782	141.996	18.9006	-137.824	142.348	19.7459	-162.805	171.718	-9.0992	-119.623	165.177	-47.3514	-121.25	162.357	-54.6881	-86.9415	189.13	-23.3223	-113.689	181.051	-54.404	-110.252	174.808	-50.479	-71.5723	207.475	-31.9373	-103.747	189.858	-59.4346	-95.17	187.79	-56.2518	-64.0259	204.879	9.69715	-61.4726	207.366	7.46677	-26.7914	170.351	13.2257	-38.2303	
9	0.075	140.881	-10.4864	-30.5827	118.753	-14.0527	-51.9151	96.4142	-13.3755	-74.7468	77.7493	-15.2795	-93.5515	156.042	11.3992	-115.577	149.117	11.4651	-139.839	151.569	10.8103	-171.307	174.377	-18.2582	-122.846	169.772	-54.9478	-116.641	164.445	-55.7493	-80.4742	195.102	-32.0265	-112.361	183.977	-60.7008	-103.665	176.853	-49.8612	-68.3602	213.131	-40.741	-101.408	193.972	-64.8577	-87.157	186.703	-51.9745	-58.1322	203.981	4.92615	-61.4836	209.796	5.42817	-30.1042	175.733	13.1547	-41.3332	
10	0.0833333	144.826	-6.76327	-35.3358	118	-7.2914	-53.9512	93.8199	-8.06564	-76.1736	77.5196	-11.0343	-94.2737	156.657	0.150051	-116.363	151.882	-5.54033	-147.676	156.99	-11.7714	-171.507	174.301	-34.399	-118.919	165.556	-67.0517	-108.868	161.218	-57.1494	-70.0535	190.197	-52.0334	-108.072	176.54	-72.9018	-90.9018	173.137	-52.2137	-60.1946	207.294	-57.6077	-94.8006	185.682	-73.1048	-75.2399	184.01	-50.1231	-48.3186	206.887	-3.99925	-63.6942	212.16	1.88049	-30.0447	178.216	8.32261	-45.6547	
11	0.0916667	145.464	2.6115	-30.3641	123.553	2.38038	-50.9156	95.144	6.67915	-77.0903	74.8777	6.87641	-91.7352	150.657	-10.3698	-118.54	146.07	-21.6556	-144.547	142.149	-34.0428	-169.647	159.885	-43.0434	-111.013	143.297	-72.8759	-92.6525	144.492	-54.0025	-57.822	172.215	-64.7483	-98.3249	157.184	-78.5447	-75.1151	162.115	-49.3254	-50.7041	183.026	-70.9379	-85.8955	165.944	-77.1674	-57.7498	175.914	-52.1388	-39.5047	205.709	-18.501	-70.5369	212.906	-7.18626	-35.3139	177.63	7.26328	-53.0569	
12	0.1	149.336	16.021	-31.0111	126.862	18.9669	-49.4039	101.447	24.54	-70.2336	81.6121	28.2202	-84.9078	141.336	-14.231	-116.596	131.243	-28.4214	-136.822	119.516	-39.4049	-155.655	138.115	-49.4584	-102.583	120.893	-67.2404	-74.8634	131.86	-46.0712	-46.2957	147.123	-68.137	-85.6082	133.43	-73.1866	-56.7134	146.644	-43.4268	-40.7305	160.096	-78.3197	-73.2736	142.921	-72.2985	-45.8338	160.52	-47.8489	-32.9568	197.577	-27.8479	-68.4858	210.074	-17.1774	-37.1006	182.617	6.78624	-52.3783	
13	0.108333	156.631	20.9706	-33.9191	133.343	33.7597	-49.8773	110.239	40.8135	-71.9576	90.4419	48.7996	-82.914	133.519	-14.7553	-107.115	116.274	-26.7218	-127.554	96.8618	-39.6886	-147.515	126.811	-45.6589	-92.6123	99.8468	-54.3305	-68.0596	118.639	-32.6546	-36.1063	125.864	-64.5738	-73.1103	110.283	-57.0546	-49.6161	131.997	-37.0972	-31.4489	140.307	-74.9345	-61.3395	124.101	-61.1979	-32.4544	144.315	-41.3251	-25.9715	186.917	-33.9348	-61.9502	204.52	-24.4063	-37.9027	182.727	5.01858	-53.6133	
